<?xml version="1.0" encoding="UTF-8"?>
<svg xmlns="http://www.w3.org/2000/svg" xmlns:xlink="http://www.w3.org/1999/xlink" width="28px" height="28px" viewBox="0 0 28 28" version="1.1">
<g id="surface7309268">
<path style=" stroke:none;fill-rule:nonzero;fill:rgb(100%,100%,100%);fill-opacity:1;" d="M 22.503906 3.128906 C 22.390625 3.128906 22.28125 3.171875 22.195312 3.257812 C 22.023438 3.425781 22.023438 3.703125 22.195312 3.875 L 22.8125 4.492188 C 22.898438 4.578125 23.007812 4.621094 23.121094 4.621094 C 23.234375 4.621094 23.347656 4.578125 23.433594 4.492188 C 23.601562 4.324219 23.601562 4.046875 23.433594 3.875 L 22.8125 3.257812 C 22.726562 3.171875 22.613281 3.128906 22.503906 3.128906 Z M 20.988281 4.644531 C 20.875 4.644531 20.765625 4.6875 20.679688 4.769531 C 20.507812 4.945312 20.507812 5.21875 20.679688 5.390625 L 21.296875 6.007812 C 21.382812 6.09375 21.492188 6.136719 21.605469 6.136719 C 21.71875 6.136719 21.832031 6.09375 21.917969 6.007812 C 22.085938 5.835938 22.085938 5.5625 21.917969 5.390625 L 21.296875 4.769531 C 21.210938 4.6875 21.097656 4.644531 20.988281 4.644531 Z M 25.375 5.25 C 25.265625 5.25 25.152344 5.292969 25.066406 5.378906 L 10.5 19.945312 L 3.808594 13.253906 C 3.636719 13.082031 3.363281 13.082031 3.191406 13.253906 L 1.441406 15.003906 C 1.269531 15.175781 1.269531 15.449219 1.441406 15.621094 L 10.191406 24.371094 C 10.277344 24.457031 10.386719 24.5 10.5 24.5 C 10.613281 24.5 10.722656 24.457031 10.808594 24.371094 L 27.433594 7.746094 C 27.605469 7.574219 27.605469 7.300781 27.433594 7.128906 L 25.683594 5.378906 C 25.597656 5.292969 25.484375 5.25 25.375 5.25 Z M 19.441406 6.191406 C 19.328125 6.191406 19.21875 6.234375 19.132812 6.316406 C 18.960938 6.488281 18.960938 6.765625 19.132812 6.9375 L 19.75 7.554688 C 19.835938 7.640625 19.945312 7.683594 20.058594 7.683594 C 20.171875 7.683594 20.285156 7.640625 20.371094 7.554688 C 20.539062 7.386719 20.539062 7.109375 20.371094 6.9375 L 19.75 6.316406 C 19.664062 6.234375 19.550781 6.191406 19.441406 6.191406 Z M 25.375 6.304688 L 26.507812 7.4375 L 10.5 23.445312 L 2.367188 15.3125 L 3.5 14.179688 L 10.191406 20.871094 C 10.363281 21.042969 10.636719 21.042969 10.808594 20.871094 Z M 17.894531 7.738281 C 17.78125 7.738281 17.667969 7.78125 17.582031 7.867188 C 17.414062 8.039062 17.414062 8.3125 17.582031 8.484375 L 18.203125 9.105469 C 18.289062 9.1875 18.398438 9.230469 18.511719 9.230469 C 18.625 9.230469 18.734375 9.1875 18.820312 9.105469 C 18.992188 8.933594 18.992188 8.65625 18.820312 8.484375 L 18.203125 7.867188 C 18.117188 7.78125 18.003906 7.738281 17.894531 7.738281 Z M 16.347656 9.285156 C 16.234375 9.285156 16.121094 9.328125 16.035156 9.414062 C 15.867188 9.582031 15.867188 9.859375 16.035156 10.03125 L 16.65625 10.648438 C 16.742188 10.734375 16.851562 10.777344 16.964844 10.777344 C 17.078125 10.777344 17.1875 10.734375 17.273438 10.648438 C 17.445312 10.480469 17.445312 10.203125 17.273438 10.03125 L 16.65625 9.414062 C 16.570312 9.328125 16.460938 9.285156 16.347656 9.285156 Z M 14.800781 10.832031 C 14.6875 10.832031 14.574219 10.875 14.492188 10.960938 C 14.320312 11.128906 14.320312 11.40625 14.492188 11.578125 L 15.109375 12.195312 C 15.195312 12.28125 15.304688 12.324219 15.417969 12.324219 C 15.53125 12.324219 15.640625 12.28125 15.726562 12.195312 C 15.898438 12.027344 15.898438 11.75 15.726562 11.578125 L 15.109375 10.960938 C 15.023438 10.875 14.910156 10.832031 14.800781 10.832031 Z M 13.253906 12.378906 C 13.140625 12.378906 13.03125 12.421875 12.945312 12.507812 C 12.773438 12.675781 12.773438 12.953125 12.945312 13.125 L 13.5625 13.742188 C 13.648438 13.828125 13.757812 13.871094 13.871094 13.871094 C 13.984375 13.871094 14.09375 13.828125 14.179688 13.742188 C 14.351562 13.574219 14.351562 13.296875 14.179688 13.125 L 13.5625 12.507812 C 13.476562 12.421875 13.363281 12.378906 13.253906 12.378906 Z M 11.707031 13.925781 C 11.59375 13.925781 11.484375 13.96875 11.398438 14.054688 C 11.226562 14.222656 11.226562 14.5 11.398438 14.671875 L 12.015625 15.289062 C 12.101562 15.375 12.210938 15.417969 12.324219 15.417969 C 12.4375 15.417969 12.550781 15.375 12.632812 15.289062 C 12.804688 15.121094 12.804688 14.84375 12.632812 14.671875 L 12.015625 14.054688 C 11.929688 13.96875 11.816406 13.925781 11.707031 13.925781 Z M 10.15625 15.472656 C 10.046875 15.472656 9.933594 15.515625 9.851562 15.597656 C 9.679688 15.769531 9.679688 16.046875 9.851562 16.21875 L 10.46875 16.835938 C 10.554688 16.921875 10.664062 16.964844 10.777344 16.964844 C 10.890625 16.964844 11.003906 16.921875 11.089844 16.835938 C 11.257812 16.664062 11.257812 16.390625 11.089844 16.21875 L 10.46875 15.597656 C 10.382812 15.515625 10.269531 15.472656 10.15625 15.472656 Z M 10.15625 15.472656 "/>
</g>
</svg>
