<?xml version="1.0" encoding="UTF-8"?>
<svg xmlns="http://www.w3.org/2000/svg" viewBox="0 0 64 64" width="64px" height="64px">
<g id="surface1365067">
<path style=" stroke:none;fill-rule:nonzero;fill:rgb(100%,8.627451%,56.470591%);fill-opacity:1;" d="M 53.15625 34.609375 C 51.105469 34.617188 49.328125 35.109375 47.839844 35.84375 C 47.296875 34.757812 46.746094 33.800781 46.652344 33.09375 C 46.546875 32.261719 46.421875 31.765625 46.550781 30.777344 C 46.679688 29.789062 47.253906 28.390625 47.246094 28.285156 C 47.238281 28.179688 47.117188 27.675781 45.933594 27.667969 C 44.753906 27.660156 43.738281 27.894531 43.621094 28.207031 C 43.503906 28.519531 43.273438 29.222656 43.132812 29.957031 C 42.925781 31.027344 40.773438 34.851562 39.550781 36.851562 C 39.148438 36.070312 38.808594 35.382812 38.738281 34.839844 C 38.628906 34.011719 38.503906 33.515625 38.636719 32.527344 C 38.765625 31.539062 39.339844 30.136719 39.332031 30.035156 C 39.324219 29.929688 39.203125 29.425781 38.019531 29.414062 C 36.835938 29.40625 35.824219 29.644531 35.707031 29.957031 C 35.589844 30.269531 35.460938 30.996094 35.21875 31.703125 C 34.976562 32.410156 32.113281 38.789062 31.363281 40.445312 C 30.980469 41.285156 30.648438 41.964844 30.414062 42.425781 C 30.410156 42.425781 30.410156 42.421875 30.410156 42.421875 C 30.410156 42.421875 30.398438 42.453125 30.375 42.503906 C 30.171875 42.898438 30.054688 43.117188 30.054688 43.117188 C 30.054688 43.117188 30.054688 43.117188 30.058594 43.125 C 29.898438 43.414062 29.726562 43.679688 29.644531 43.679688 C 29.585938 43.679688 29.464844 42.910156 29.667969 41.855469 C 30.09375 39.644531 31.117188 36.191406 31.109375 36.070312 C 31.101562 36.011719 31.296875 35.410156 30.441406 35.09375 C 29.605469 34.789062 29.308594 35.296875 29.230469 35.300781 C 29.160156 35.300781 29.105469 35.480469 29.105469 35.480469 C 29.105469 35.480469 30.035156 31.597656 27.332031 31.597656 C 25.640625 31.597656 23.296875 33.449219 22.144531 35.125 C 21.417969 35.519531 19.859375 36.371094 18.207031 37.28125 C 17.570312 37.628906 16.925781 37.984375 16.308594 38.324219 C 16.269531 38.277344 16.226562 38.230469 16.183594 38.183594 C 12.902344 34.6875 6.84375 32.214844 7.101562 27.511719 C 7.195312 25.800781 7.789062 21.300781 18.746094 15.84375 C 27.71875 11.371094 34.90625 12.601562 36.148438 15.328125 C 37.921875 19.226562 32.308594 26.464844 22.988281 27.511719 C 19.4375 27.910156 17.566406 26.535156 17.101562 26.019531 C 16.609375 25.480469 16.539062 25.457031 16.355469 25.558594 C 16.058594 25.722656 16.246094 26.199219 16.355469 26.484375 C 16.632812 27.207031 17.773438 28.492188 19.722656 29.132812 C 21.433594 29.695312 25.605469 30.003906 30.644531 28.050781 C 36.292969 25.867188 40.703125 19.789062 39.40625 14.710938 C 38.089844 9.546875 29.523438 7.847656 21.417969 10.726562 C 16.585938 12.441406 11.363281 15.132812 7.609375 18.644531 C 3.144531 22.820312 2.429688 26.457031 2.722656 27.976562 C 3.765625 33.375 11.207031 36.886719 14.183594 39.492188 C 14.039062 39.574219 13.898438 39.648438 13.773438 39.71875 C 12.28125 40.457031 6.609375 43.425781 5.191406 46.558594 C 3.582031 50.117188 5.445312 52.667969 6.679688 53.011719 C 10.507812 54.074219 14.433594 52.160156 16.542969 49.015625 C 18.652344 45.871094 18.394531 41.773438 17.425781 39.902344 C 17.414062 39.878906 17.402344 39.855469 17.390625 39.832031 C 17.773438 39.605469 18.167969 39.375 18.558594 39.144531 C 19.316406 38.699219 20.0625 38.28125 20.710938 37.929688 C 20.347656 38.921875 20.082031 40.113281 19.945312 41.832031 C 19.78125 43.847656 20.609375 46.457031 21.691406 47.484375 C 22.171875 47.9375 22.742188 47.949219 23.105469 47.949219 C 24.367188 47.949219 24.941406 46.898438 25.574219 45.660156 C 26.351562 44.140625 27.039062 42.371094 27.039062 42.371094 C 27.039062 42.371094 26.175781 47.152344 28.53125 47.152344 C 29.390625 47.152344 30.253906 46.039062 30.636719 45.46875 C 30.636719 45.476562 30.636719 45.480469 30.636719 45.480469 C 30.636719 45.480469 30.660156 45.441406 30.707031 45.371094 C 30.792969 45.234375 30.84375 45.148438 30.84375 45.148438 C 30.84375 45.148438 30.847656 45.136719 30.847656 45.121094 C 31.195312 44.523438 31.960938 43.15625 33.105469 40.90625 C 34.589844 37.996094 36.011719 34.351562 36.011719 34.351562 C 36.011719 34.351562 36.144531 35.242188 36.574219 36.714844 C 36.832031 37.582031 37.371094 38.542969 37.800781 39.460938 C 37.457031 39.9375 37.246094 40.210938 37.246094 40.210938 C 37.246094 40.210938 37.246094 40.21875 37.25 40.226562 C 36.976562 40.59375 36.667969 40.984375 36.34375 41.371094 C 35.175781 42.761719 33.78125 44.355469 33.59375 44.8125 C 33.375 45.355469 33.425781 45.753906 33.851562 46.074219 C 34.164062 46.308594 34.714844 46.34375 35.292969 46.304688 C 36.34375 46.234375 37.082031 45.972656 37.449219 45.816406 C 38.015625 45.613281 38.679688 45.296875 39.300781 44.839844 C 40.449219 43.996094 41.140625 42.789062 41.074219 41.1875 C 41.039062 40.308594 40.757812 39.433594 40.402344 38.609375 C 40.503906 38.460938 40.609375 38.308594 40.714844 38.15625 C 42.523438 35.511719 43.929688 32.605469 43.929688 32.605469 C 43.929688 32.605469 44.058594 33.496094 44.492188 34.96875 C 44.710938 35.714844 45.144531 36.53125 45.535156 37.328125 C 43.832031 38.710938 42.777344 40.316406 42.410156 41.371094 C 41.734375 43.320312 42.265625 44.203125 43.261719 44.402344 C 43.710938 44.496094 44.347656 44.289062 44.828125 44.085938 C 45.421875 43.886719 46.136719 43.558594 46.808594 43.066406 C 47.957031 42.222656 49.058594 41.042969 48.992188 39.441406 C 48.960938 38.714844 48.765625 37.992188 48.496094 37.296875 C 49.941406 36.699219 51.808594 36.363281 54.183594 36.640625 C 59.289062 37.238281 60.289062 40.421875 60.097656 41.757812 C 59.90625 43.089844 58.835938 43.824219 58.476562 44.042969 C 58.121094 44.265625 58.011719 44.34375 58.039062 44.507812 C 58.085938 44.746094 58.25 44.738281 58.554688 44.683594 C 58.976562 44.613281 61.234375 43.601562 61.332031 41.140625 C 61.453125 38.011719 58.457031 34.578125 53.15625 34.609375 Z M 13.828125 47.867188 C 12.136719 49.710938 9.777344 50.40625 8.761719 49.820312 C 7.667969 49.1875 8.101562 46.472656 10.175781 44.515625 C 11.441406 43.324219 13.070312 42.222656 14.15625 41.546875 C 14.402344 41.398438 14.761719 41.183594 15.203125 40.917969 C 15.277344 40.878906 15.316406 40.855469 15.316406 40.855469 L 15.316406 40.851562 C 15.402344 40.800781 15.488281 40.75 15.578125 40.695312 C 16.332031 43.480469 15.601562 45.933594 13.828125 47.867188 Z M 26.140625 39.496094 C 25.550781 40.933594 24.320312 44.605469 23.570312 44.40625 C 22.925781 44.238281 22.535156 41.445312 23.441406 38.699219 C 23.898438 37.316406 24.875 35.664062 25.445312 35.023438 C 26.371094 33.992188 27.386719 33.65625 27.632812 34.074219 C 27.945312 34.605469 26.507812 38.597656 26.140625 39.496094 Z M 36.3125 44.351562 C 36.0625 44.480469 35.832031 44.5625 35.726562 44.5 C 35.648438 44.453125 35.832031 44.28125 35.832031 44.28125 C 35.832031 44.28125 37.101562 42.910156 37.605469 42.289062 C 37.894531 41.925781 38.234375 41.496094 38.601562 41.015625 C 38.605469 41.0625 38.605469 41.113281 38.605469 41.160156 C 38.601562 42.796875 37.019531 43.90625 36.3125 44.351562 Z M 44.148438 42.5625 C 43.960938 42.433594 43.992188 42.003906 44.605469 40.667969 C 44.84375 40.144531 45.394531 39.265625 46.347656 38.421875 C 46.457031 38.769531 46.523438 39.101562 46.523438 39.410156 C 46.511719 41.472656 45.039062 42.242188 44.148438 42.5625 Z M 44.148438 42.5625 "/>
</g>
</svg>
