<?xml version="1.0" encoding="UTF-8"?>
<svg xmlns="http://www.w3.org/2000/svg" viewBox="0 0 64 64" width="64px" height="64px">
<g id="surface1365276">
<path style=" stroke:none;fill-rule:nonzero;fill:rgb(36.078432%,14.901961%,52.549022%);fill-opacity:1;" d="M 56 49.332031 C 56 53.015625 53.015625 56 49.332031 56 L 14.667969 56 C 10.984375 56 8 53.015625 8 49.332031 L 8 14.667969 C 8 10.984375 10.984375 8 14.667969 8 L 49.332031 8 C 53.015625 8 56 10.984375 56 14.667969 Z M 56 49.332031 "/>
<path style=" stroke:none;fill-rule:nonzero;fill:rgb(100%,100%,100%);fill-opacity:1;" d="M 44.039062 34.132812 C 43.171875 32.933594 41.921875 32.105469 40.308594 31.667969 C 40.308594 31.667969 41.667969 31.171875 42.894531 29.332031 C 43.625 28.160156 44 26.746094 44 25.09375 C 44 22.226562 42.960938 20.027344 40.878906 18.519531 C 38.800781 17.011719 36.453125 16 32.464844 16 L 20 16 L 20 48 L 33.90625 48 C 37.679688 47.972656 40.519531 47.160156 42.453125 45.601562 C 44.375 44.011719 45.332031 41.667969 45.332031 38.535156 C 45.332031 36.800781 44.90625 35.332031 44.039062 34.132812 Z M 28 21.332031 C 28 21.332031 33.558594 21.332031 33.667969 21.332031 C 35.691406 21.332031 37.332031 22.972656 37.332031 25 C 37.332031 27.027344 35.691406 28.667969 33.667969 28.667969 C 33.558594 28.667969 28 28.667969 28 28.667969 Z M 34.667969 42.667969 L 28 42.667969 L 28 34.667969 L 34.667969 34.667969 C 36.878906 34.667969 38.667969 36.453125 38.667969 38.667969 C 38.667969 40.878906 36.878906 42.667969 34.667969 42.667969 Z M 34.667969 42.667969 "/>
</g>
</svg>
